<?xml version="1.0" encoding="UTF-8"?>
<svg xmlns="http://www.w3.org/2000/svg" xmlns:xlink="http://www.w3.org/1999/xlink" width="24px" height="24px" viewBox="0 0 24 24" version="1.1">
<g id="surface1">
<path style=" stroke:none;fill-rule:nonzero;fill:rgb(2.745098%,2.745098%,2.745098%);fill-opacity:1;" d="M 0.667969 -0.09375 C 1.652344 0.0507812 2.132812 0.621094 2.8125 1.3125 C 3.011719 1.515625 3.011719 1.515625 3.21875 1.726562 C 4.238281 2.8125 5.101562 3.988281 5.949219 5.210938 C 6.324219 5.742188 6.714844 6.25 7.125 6.75 C 7.304688 6.597656 7.480469 6.449219 7.664062 6.292969 C 8.277344 5.773438 8.644531 5.597656 9.457031 5.589844 C 9.605469 5.585938 9.75 5.585938 9.902344 5.582031 C 10.3125 5.625 10.3125 5.625 10.875 6 C 10.96875 5.855469 11.0625 5.714844 11.15625 5.566406 C 11.75 4.929688 12.273438 4.660156 13.125 4.5 C 13.574219 4.519531 14 4.578125 14.441406 4.664062 C 14.875 4.730469 14.875 4.730469 15.375 4.3125 C 16.34375 4.109375 17.105469 4.261719 17.941406 4.78125 C 19.304688 5.792969 20.148438 7.117188 20.566406 8.753906 C 20.734375 10.542969 20.566406 12.265625 20.320312 14.039062 C 20.117188 15.625 19.996094 17.019531 20.335938 18.59375 C 20.480469 19.34375 20.601562 20.09375 20.265625 20.800781 C 19.371094 21.769531 18.347656 22.523438 17.25 23.25 C 17.125 23.335938 17 23.421875 16.871094 23.511719 C 15.777344 24.167969 14.550781 24.214844 13.3125 24 C 12.898438 23.757812 12.617188 23.503906 12.289062 23.160156 C 11.839844 22.714844 11.265625 22.554688 10.6875 22.3125 C 10.3125 22.054688 9.960938 21.777344 9.601562 21.496094 C 9.160156 21.167969 8.703125 20.902344 8.226562 20.625 C 7.289062 20.039062 6.523438 19.347656 5.742188 18.574219 C 5.632812 18.464844 5.523438 18.359375 5.410156 18.25 C 4.75 17.574219 4.25 16.898438 3.796875 16.070312 C 3.4375 15.582031 2.980469 15.429688 2.4375 15.195312 C 1.773438 14.847656 1.320312 14.332031 0.9375 13.6875 C 0.820312 13.078125 0.820312 13.078125 0.9375 12.5625 C 1.21875 12.199219 1.21875 12.199219 1.6875 12 C 3.273438 11.972656 4.585938 12.738281 5.765625 13.757812 C 6.441406 14.417969 7.0625 15.046875 7.535156 15.867188 C 8.066406 16.679688 8.976562 17.039062 9.824219 17.449219 C 10.65625 17.859375 11.308594 18.320312 12 18.9375 C 10.925781 17.132812 9.535156 15.730469 7.828125 14.519531 C 7.28125 14.070312 6.949219 13.523438 6.5625 12.9375 C 6.46875 12.863281 6.378906 12.785156 6.28125 12.707031 C 5.84375 12.191406 5.746094 11.5625 5.578125 10.921875 C 5.265625 9.824219 4.976562 9.113281 4.078125 8.367188 C 3.558594 7.882812 3.257812 7.289062 2.910156 6.675781 C 2.625 6.1875 2.3125 5.742188 1.980469 5.285156 C -0.257812 2.109375 -0.257812 2.109375 0 0.1875 C 0.1875 0 0.1875 0 0.667969 -0.09375 Z M 0.667969 -0.09375 "/>
<path style=" stroke:none;fill-rule:nonzero;fill:rgb(94.117647%,94.117647%,94.117647%);fill-opacity:1;" d="M 12.75 9.5625 C 12.921875 10.070312 13.097656 10.574219 13.230469 11.09375 C 13.675781 12.789062 14.441406 14.457031 15.65625 15.738281 C 16.125 16.3125 16.125 16.3125 16.125 16.921875 C 15.9375 17.4375 15.9375 17.4375 15.5625 18 C 14.8125 17.757812 14.484375 17.539062 14.0625 16.875 C 13.898438 16.453125 13.742188 16.027344 13.59375 15.597656 C 13.113281 14.292969 12.425781 13.261719 11.550781 12.191406 C 11.164062 11.703125 10.890625 11.347656 10.789062 10.726562 C 10.875 10.3125 10.875 10.3125 11.285156 9.878906 C 11.84375 9.542969 12.113281 9.488281 12.75 9.5625 Z M 12.75 9.5625 "/>
<path style=" stroke:none;fill-rule:nonzero;fill:rgb(94.901961%,94.901961%,94.901961%);fill-opacity:1;" d="M 8.625 11.4375 C 9.242188 11.488281 9.5 11.558594 9.925781 12.019531 C 10.355469 12.621094 10.679688 13.25 11.003906 13.910156 C 11.730469 15.332031 12.648438 16.46875 13.828125 17.550781 C 14.0625 17.8125 14.0625 17.8125 14.109375 18.304688 C 14.0625 18.75 14.0625 18.75 13.875 18.9375 C 13.453125 19.019531 13.453125 19.019531 12.9375 18.9375 C 12.585938 18.566406 12.3125 18.230469 12.023438 17.8125 C 11.859375 17.585938 11.695312 17.363281 11.527344 17.136719 C 11.449219 17.027344 11.367188 16.917969 11.285156 16.804688 C 10.5 15.734375 9.65625 14.871094 8.570312 14.105469 C 8.25 13.875 8.25 13.875 7.875 13.5 C 7.777344 12.753906 7.816406 12.460938 8.25 11.835938 C 8.375 11.703125 8.496094 11.574219 8.625 11.4375 Z M 8.625 11.4375 "/>
<path style=" stroke:none;fill-rule:nonzero;fill:rgb(94.509804%,94.509804%,94.509804%);fill-opacity:1;" d="M 16.125 8.8125 C 16.3125 8.9375 16.496094 9.058594 16.6875 9.1875 C 16.777344 9.695312 16.832031 10.175781 16.875 10.6875 C 16.917969 11.027344 16.957031 11.363281 17.003906 11.703125 C 17.027344 11.878906 17.050781 12.058594 17.074219 12.238281 C 17.097656 12.417969 17.121094 12.601562 17.144531 12.785156 C 17.167969 12.96875 17.191406 13.148438 17.214844 13.335938 C 17.25 13.601562 17.25 13.601562 17.285156 13.871094 C 17.304688 14.03125 17.324219 14.1875 17.347656 14.351562 C 17.425781 14.824219 17.425781 14.824219 17.632812 15.296875 C 17.871094 15.894531 17.835938 16.421875 17.8125 17.0625 C 17.441406 17.0625 17.070312 17.0625 16.6875 17.0625 C 16.667969 16.910156 16.644531 16.753906 16.625 16.59375 C 16.308594 14.378906 15.917969 12.847656 14.558594 11.035156 C 14.203125 10.421875 14.164062 10.074219 14.25 9.375 C 14.796875 8.742188 15.320312 8.726562 16.125 8.8125 Z M 16.125 8.8125 "/>
<path style=" stroke:none;fill-rule:nonzero;fill:rgb(94.509804%,94.509804%,94.509804%);fill-opacity:1;" d="M 4.5 5.25 C 4.835938 5.269531 4.835938 5.269531 5.25 5.4375 C 5.578125 5.949219 5.578125 5.949219 5.894531 6.597656 C 6.359375 7.511719 6.820312 8.238281 7.5 9 C 7.5 9.125 7.5 9.246094 7.5 9.375 C 7.609375 9.425781 7.714844 9.476562 7.828125 9.527344 C 8.257812 9.753906 8.621094 10.015625 9 10.3125 C 8.976562 10.664062 8.976562 10.664062 8.8125 11.0625 C 8.546875 11.148438 8.546875 11.148438 8.273438 11.238281 C 7.652344 11.386719 7.652344 11.386719 7.335938 11.929688 C 7.265625 12.078125 7.195312 12.222656 7.125 12.375 C 6.847656 12.28125 6.847656 12.28125 6.5625 12.1875 C 6.546875 12.042969 6.535156 11.902344 6.519531 11.753906 C 6.324219 10.230469 5.941406 9.003906 4.746094 7.976562 C 4.644531 7.902344 4.542969 7.824219 4.441406 7.746094 C 3.9375 7.3125 3.9375 7.3125 3.726562 6.75 C 3.757812 6.027344 4.007812 5.757812 4.5 5.25 Z M 4.5 5.25 "/>
<path style=" stroke:none;fill-rule:nonzero;fill:rgb(94.901961%,94.901961%,94.901961%);fill-opacity:1;" d="M 18.199219 8.230469 C 18.429688 8.234375 18.429688 8.234375 18.667969 8.238281 C 18.824219 8.238281 18.976562 8.242188 19.136719 8.242188 C 19.257812 8.246094 19.375 8.246094 19.5 8.25 C 19.816406 8.804688 19.921875 9.203125 19.925781 9.839844 C 19.925781 10 19.925781 10.160156 19.925781 10.324219 C 19.925781 10.492188 19.921875 10.65625 19.921875 10.828125 C 19.921875 10.992188 19.925781 11.152344 19.925781 11.320312 C 19.921875 12.367188 19.773438 13.242188 19.5 14.25 C 19.449219 14.6875 19.410156 15.125 19.382812 15.5625 C 19.367188 15.773438 19.355469 15.988281 19.339844 16.207031 C 19.332031 16.367188 19.320312 16.523438 19.3125 16.6875 C 19.003906 16.757812 18.6875 16.820312 18.375 16.875 C 18.3125 16.8125 18.25 16.75 18.1875 16.6875 C 18.199219 16.351562 18.226562 16.015625 18.257812 15.679688 C 18.28125 15.40625 18.28125 15.40625 18.308594 15.125 C 18.375 14.625 18.375 14.625 18.5625 14.0625 C 18.613281 13.511719 18.613281 12.960938 18.621094 12.410156 C 18.625 12.261719 18.632812 12.113281 18.636719 11.957031 C 18.648438 10.910156 18.480469 10.375 17.8125 9.5625 C 17.75 9.5 17.6875 9.4375 17.625 9.375 C 17.601562 8.90625 17.601562 8.90625 17.625 8.4375 C 17.8125 8.25 17.8125 8.25 18.199219 8.230469 Z M 18.199219 8.230469 "/>
<path style=" stroke:none;fill-rule:nonzero;fill:rgb(94.901961%,94.901961%,94.901961%);fill-opacity:1;" d="M 8.0625 17.4375 C 8.742188 17.757812 9.371094 18.144531 10.007812 18.539062 C 10.214844 18.667969 10.421875 18.792969 10.632812 18.925781 C 12.261719 19.949219 12.261719 19.949219 12.75 20.4375 C 12.796875 21 12.796875 21 12.75 21.5625 C 12.375 21.9375 12.375 21.9375 11.800781 21.960938 C 10.917969 21.8125 10.378906 21.210938 9.753906 20.609375 C 9.113281 20.003906 8.511719 19.769531 7.6875 19.5 C 7.5 19.3125 7.5 19.3125 7.453125 18.785156 C 7.503906 18.136719 7.628906 17.90625 8.0625 17.4375 Z M 8.0625 17.4375 "/>
<path style=" stroke:none;fill-rule:nonzero;fill:rgb(94.117647%,94.117647%,94.117647%);fill-opacity:1;" d="M 9.9375 6.375 C 10.292969 6.824219 10.5 7.109375 10.5 7.6875 C 11.335938 7.875 11.335938 7.875 12.1875 8.0625 C 12.25 8.371094 12.3125 8.679688 12.375 9 C 12.257812 9.035156 12.140625 9.066406 12.019531 9.101562 C 11.789062 9.175781 11.789062 9.175781 11.554688 9.246094 C 11.328125 9.316406 11.328125 9.316406 11.09375 9.382812 C 10.625 9.546875 10.625 9.546875 10.3125 10.125 C 10.066406 10.0625 9.816406 10 9.5625 9.9375 C 9.546875 9.761719 9.546875 9.761719 9.535156 9.582031 C 9.519531 9.429688 9.507812 9.273438 9.492188 9.117188 C 9.472656 8.890625 9.472656 8.890625 9.453125 8.65625 C 9.40625 8.210938 9.40625 8.210938 9 7.875 C 8.691406 7.742188 8.378906 7.617188 8.0625 7.5 C 8.121094 7.148438 8.121094 7.148438 8.25 6.75 C 8.902344 6.316406 9.171875 6.261719 9.9375 6.375 Z M 9.9375 6.375 "/>
<path style=" stroke:none;fill-rule:nonzero;fill:rgb(94.117647%,94.117647%,94.117647%);fill-opacity:1;" d="M 13.875 5.25 C 14.21875 5.550781 14.21875 5.550781 14.53125 5.953125 C 15.019531 6.554688 15.496094 7.042969 16.125 7.5 C 16.0625 7.6875 16 7.871094 15.9375 8.0625 C 15.441406 8.125 14.949219 8.1875 14.4375 8.25 C 14.4375 8.375 14.4375 8.496094 14.4375 8.625 C 14.074219 8.730469 14.074219 8.730469 13.6875 8.8125 C 13.390625 8.515625 13.433594 8.179688 13.394531 7.769531 C 13.378906 7.613281 13.363281 7.460938 13.347656 7.300781 C 13.335938 7.179688 13.324219 7.0625 13.3125 6.9375 C 12.878906 6.8125 12.445312 6.691406 12 6.5625 C 12 6.316406 12 6.066406 12 5.8125 C 12.621094 5.316406 13.085938 5.152344 13.875 5.25 Z M 13.875 5.25 "/>
<path style=" stroke:none;fill-rule:nonzero;fill:rgb(93.725491%,93.725491%,93.725491%);fill-opacity:1;" d="M 5.0625 14.4375 C 5.980469 15.078125 6.78125 15.886719 7.3125 16.875 C 7.3125 17.421875 7.183594 17.683594 6.9375 18.1875 C 6.269531 17.902344 5.816406 17.507812 5.296875 17.003906 C 5.148438 16.863281 4.996094 16.71875 4.84375 16.574219 C 4.5 16.125 4.5 16.125 4.433594 15.628906 C 4.515625 15.097656 4.707031 14.835938 5.0625 14.4375 Z M 5.0625 14.4375 "/>
<path style=" stroke:none;fill-rule:nonzero;fill:rgb(95.686275%,95.686275%,95.686275%);fill-opacity:1;" d="M 15.75 4.875 C 16.136719 4.792969 16.136719 4.792969 16.6875 4.875 C 17.046875 5.179688 17.359375 5.511719 17.679688 5.859375 C 18.007812 6.222656 18.007812 6.222656 18.550781 6.515625 C 18.679688 6.59375 18.804688 6.671875 18.9375 6.75 C 18.9375 6.9375 18.9375 7.121094 18.9375 7.3125 C 17.554688 7.785156 17.554688 7.785156 17.0625 7.875 C 16.875 7.6875 16.875 7.6875 16.839844 7.066406 C 16.753906 6.328125 16.753906 6.328125 16.113281 5.917969 C 15.929688 5.820312 15.75 5.726562 15.5625 5.625 C 15.625 5.378906 15.6875 5.128906 15.75 4.875 Z M 15.75 4.875 "/>
<path style=" stroke:none;fill-rule:nonzero;fill:rgb(85.09804%,84.705883%,84.705883%);fill-opacity:1;" d="M 3.1875 2.8125 C 3.355469 3.121094 3.355469 3.121094 3.527344 3.433594 C 3.804688 3.921875 4.070312 4.320312 4.5 4.6875 C 3.675781 5.4375 3.675781 5.4375 3.375 5.625 C 2.484375 5.328125 2.238281 4.464844 1.828125 3.667969 C 1.78125 3.570312 1.734375 3.476562 1.6875 3.375 C 2.148438 2.789062 2.457031 2.753906 3.1875 2.8125 Z M 3.1875 2.8125 "/>
<path style=" stroke:none;fill-rule:nonzero;fill:rgb(96.862745%,96.862745%,96.862745%);fill-opacity:1;" d="M 15.5625 21.5625 C 15.75 21.625 15.933594 21.6875 16.125 21.75 C 16.125 22.121094 16.125 22.492188 16.125 22.875 C 15.320312 23.332031 14.597656 23.386719 13.6875 23.25 C 13.207031 22.910156 13.207031 22.910156 12.9375 22.5 C 12.9375 22.3125 12.9375 22.128906 12.9375 21.9375 C 13.09375 21.925781 13.253906 21.914062 13.417969 21.902344 C 13.621094 21.886719 13.828125 21.871094 14.039062 21.855469 C 14.242188 21.839844 14.449219 21.824219 14.660156 21.808594 C 15.175781 21.78125 15.175781 21.78125 15.5625 21.5625 Z M 15.5625 21.5625 "/>
<path style=" stroke:none;fill-rule:nonzero;fill:rgb(94.117647%,94.117647%,94.117647%);fill-opacity:1;" d="M 1.875 12.9375 C 3.207031 12.847656 3.207031 12.847656 3.9375 13.242188 C 4.3125 13.6875 4.3125 13.6875 4.371094 14.296875 C 4.34375 14.550781 4.34375 14.550781 4.3125 14.8125 C 3.898438 14.953125 3.898438 14.953125 3.375 15 C 2.914062 14.691406 2.914062 14.691406 2.472656 14.261719 C 2.324219 14.121094 2.175781 13.980469 2.023438 13.835938 C 1.914062 13.722656 1.800781 13.613281 1.6875 13.5 C 1.75 13.3125 1.8125 13.128906 1.875 12.9375 Z M 1.875 12.9375 "/>
<path style=" stroke:none;fill-rule:nonzero;fill:rgb(60.392159%,59.607846%,59.607846%);fill-opacity:1;" d="M 8.0625 12 C 8.125 12 8.1875 12 8.25 12 C 8.292969 12.167969 8.332031 12.332031 8.375 12.503906 C 8.671875 13.246094 9.019531 13.542969 9.632812 14.050781 C 10.445312 14.757812 11.023438 15.316406 11.4375 16.3125 C 11.375 16.4375 11.3125 16.558594 11.25 16.6875 C 11.160156 16.578125 11.066406 16.46875 10.976562 16.359375 C 10.230469 15.492188 9.5 14.753906 8.5625 14.097656 C 8.25 13.875 8.25 13.875 7.875 13.5 C 7.8125 12.5 7.8125 12.5 8.0625 12 Z M 8.0625 12 "/>
<path style=" stroke:none;fill-rule:nonzero;fill:rgb(58.431375%,57.647061%,57.647061%);fill-opacity:1;" d="M 11.8125 9.5625 C 11.9375 9.625 12.058594 9.6875 12.1875 9.75 C 12.179688 9.917969 12.175781 10.085938 12.167969 10.257812 C 12.164062 10.476562 12.15625 10.695312 12.152344 10.921875 C 12.144531 11.140625 12.140625 11.355469 12.132812 11.582031 C 12.191406 12.246094 12.34375 12.4375 12.75 12.9375 C 12.6875 13.125 12.625 13.308594 12.5625 13.5 C 12.277344 13.148438 11.996094 12.792969 11.71875 12.433594 C 11.636719 12.335938 11.558594 12.234375 11.476562 12.132812 C 11.113281 11.667969 10.886719 11.320312 10.792969 10.734375 C 10.914062 10.105469 11.296875 9.910156 11.8125 9.5625 Z M 11.8125 9.5625 "/>
<path style=" stroke:none;fill-rule:nonzero;fill:rgb(89.019608%,89.019608%,89.019608%);fill-opacity:1;" d="M 14.0625 19.3125 C 14.554688 19.417969 14.554688 19.417969 15 19.6875 C 15.175781 20.144531 15.175781 20.144531 15.1875 20.625 C 15 20.902344 15 20.902344 14.8125 21.1875 C 14.25 21.257812 14.25 21.257812 13.6875 21.1875 C 13.3125 20.625 13.3125 20.625 13.347656 20.144531 C 13.5 19.6875 13.5 19.6875 14.0625 19.3125 Z M 14.0625 19.3125 "/>
<path style=" stroke:none;fill-rule:nonzero;fill:rgb(94.117647%,94.117647%,94.117647%);fill-opacity:1;" d="M 0.375 0.5625 C 1.003906 0.671875 1.300781 0.859375 1.734375 1.324219 C 1.878906 1.476562 1.878906 1.476562 2.03125 1.636719 C 2.101562 1.714844 2.175781 1.792969 2.25 1.875 C 2.125 2.121094 2.003906 2.371094 1.875 2.625 C 1.441406 2.683594 1.441406 2.683594 0.9375 2.625 C 0.367188 1.957031 0.316406 1.421875 0.375 0.5625 Z M 0.375 0.5625 "/>
<path style=" stroke:none;fill-rule:nonzero;fill:rgb(91.37255%,91.37255%,91.37255%);fill-opacity:1;" d="M 17.8125 20.25 C 18.105469 20.472656 18.105469 20.472656 18.375 20.8125 C 18.375 21.28125 18.375 21.28125 18.1875 21.75 C 17.644531 22.164062 17.375 22.3125 16.6875 22.3125 C 16.617188 21.703125 16.617188 21.703125 16.6875 21 C 17.25 20.542969 17.25 20.542969 17.8125 20.25 Z M 17.8125 20.25 "/>
<path style=" stroke:none;fill-rule:nonzero;fill:rgb(94.117647%,94.117647%,94.117647%);fill-opacity:1;" d="M 15.75 18.375 C 16.125 18.386719 16.125 18.386719 16.5 18.5625 C 16.785156 19.066406 16.898438 19.359375 16.804688 19.933594 C 16.765625 20.039062 16.726562 20.140625 16.6875 20.25 C 16.378906 20.3125 16.070312 20.375 15.75 20.4375 C 15.402344 19.851562 15.304688 19.429688 15.375 18.75 C 15.5 18.625 15.621094 18.503906 15.75 18.375 Z M 15.75 18.375 "/>
<path style=" stroke:none;fill-rule:nonzero;fill:rgb(60.784316%,60.000002%,60.000002%);fill-opacity:1;" d="M 7.6875 19.3125 C 8.632812 19.210938 9.179688 19.226562 9.960938 19.792969 C 10.664062 20.375 11.253906 21.03125 11.8125 21.75 C 11.625 21.84375 11.625 21.84375 11.4375 21.9375 C 11.261719 21.792969 11.085938 21.648438 10.902344 21.5 C 10.667969 21.308594 10.429688 21.121094 10.195312 20.929688 C 10.078125 20.835938 9.964844 20.738281 9.84375 20.640625 C 9.152344 20.085938 8.5625 19.722656 7.6875 19.5 C 7.6875 19.4375 7.6875 19.375 7.6875 19.3125 Z M 7.6875 19.3125 "/>
<path style=" stroke:none;fill-rule:nonzero;fill:rgb(57.254905%,56.470591%,56.470591%);fill-opacity:1;" d="M 12.75 13.5 C 13.742188 14.375 14.054688 15.28125 14.488281 16.503906 C 14.761719 17.121094 14.761719 17.121094 15.410156 17.234375 C 15.585938 17.238281 15.757812 17.246094 15.9375 17.25 C 15.8125 17.496094 15.691406 17.746094 15.5625 18 C 14.808594 17.753906 14.488281 17.539062 14.0625 16.875 C 13.855469 16.402344 13.660156 15.9375 13.476562 15.457031 C 13.425781 15.332031 13.378906 15.203125 13.328125 15.074219 C 13.121094 14.554688 12.925781 14.03125 12.75 13.5 Z M 12.75 13.5 "/>
<path style=" stroke:none;fill-rule:nonzero;fill:rgb(81.960785%,81.960785%,81.960785%);fill-opacity:1;" d="M 18.1875 17.625 C 18.1875 18.183594 18.1875 18.738281 18.1875 19.3125 C 17.816406 19.5 17.816406 19.5 17.4375 19.6875 C 17 19.007812 17.03125 18.417969 17.0625 17.625 C 17.4375 17.4375 17.4375 17.4375 18.1875 17.625 Z M 18.1875 17.625 "/>
<path style=" stroke:none;fill-rule:nonzero;fill:rgb(59.607846%,58.823532%,58.823532%);fill-opacity:1;" d="M 14.4375 9.1875 C 14.5 9.1875 14.5625 9.1875 14.625 9.1875 C 14.660156 9.363281 14.695312 9.535156 14.730469 9.714844 C 14.921875 10.414062 15.273438 10.933594 15.679688 11.53125 C 16.246094 12.382812 16.46875 12.867188 16.3125 13.875 C 16.265625 13.773438 16.214844 13.671875 16.164062 13.566406 C 15.898438 13.050781 15.59375 12.570312 15.28125 12.082031 C 15.167969 11.902344 15.054688 11.726562 14.9375 11.542969 C 14.710938 11.191406 14.480469 10.847656 14.25 10.5 C 14.214844 9.914062 14.214844 9.914062 14.25 9.375 C 14.3125 9.3125 14.375 9.25 14.4375 9.1875 Z M 14.4375 9.1875 "/>
<path style=" stroke:none;fill-rule:nonzero;fill:rgb(60.392159%,60.000002%,60.000002%);fill-opacity:1;" d="M 4.5 15.1875 C 4.5625 15.3125 4.625 15.433594 4.6875 15.5625 C 4.855469 15.632812 4.855469 15.632812 5.027344 15.703125 C 5.4375 15.9375 5.4375 15.9375 5.800781 16.511719 C 6.132812 17.101562 6.132812 17.101562 6.703125 17.226562 C 6.84375 17.234375 6.980469 17.242188 7.125 17.25 C 7.0625 17.558594 7 17.867188 6.9375 18.1875 C 6.269531 17.902344 5.816406 17.507812 5.296875 17.003906 C 5.148438 16.863281 4.996094 16.71875 4.84375 16.574219 C 4.449219 16.058594 4.425781 15.820312 4.5 15.1875 Z M 4.5 15.1875 "/>
<path style=" stroke:none;fill-rule:nonzero;fill:rgb(60.784316%,60.392159%,60.392159%);fill-opacity:1;" d="M 17.8125 8.25 C 17.9375 8.25 18.058594 8.25 18.1875 8.25 C 18.890625 9.289062 19.039062 9.996094 18.984375 11.238281 C 18.980469 11.382812 18.976562 11.53125 18.972656 11.679688 C 18.964844 12.039062 18.953125 12.394531 18.9375 12.75 C 18.875 12.75 18.8125 12.75 18.75 12.75 C 18.746094 12.613281 18.742188 12.476562 18.734375 12.339844 C 18.660156 11.082031 18.535156 10.285156 17.625 9.375 C 17.601562 8.90625 17.601562 8.90625 17.625 8.4375 C 17.6875 8.375 17.75 8.3125 17.8125 8.25 Z M 17.8125 8.25 "/>
<path style=" stroke:none;fill-rule:nonzero;fill:rgb(57.254905%,56.470591%,56.470591%);fill-opacity:1;" d="M 15.75 4.875 C 16.058594 4.875 16.367188 4.875 16.6875 4.875 C 16.5 4.9375 16.316406 5 16.125 5.0625 C 16.277344 5.226562 16.425781 5.386719 16.582031 5.554688 C 17.058594 6.117188 17.195312 6.570312 17.25 7.3125 C 17.898438 7.21875 17.898438 7.21875 18.5625 7.125 C 18.140625 7.511719 18.140625 7.511719 17.625 7.875 C 17.191406 7.828125 17.191406 7.828125 16.875 7.6875 C 16.863281 7.386719 16.863281 7.386719 16.851562 7.078125 C 16.753906 6.332031 16.753906 6.332031 16.113281 5.917969 C 15.929688 5.820312 15.75 5.726562 15.5625 5.625 C 15.625 5.378906 15.6875 5.128906 15.75 4.875 Z M 15.75 4.875 "/>
<path style=" stroke:none;fill-rule:nonzero;fill:rgb(58.039218%,57.647061%,57.647061%);fill-opacity:1;" d="M 8.25 6.75 C 8.3125 6.9375 8.375 7.121094 8.4375 7.3125 C 8.808594 7.445312 9.183594 7.570312 9.5625 7.6875 C 9.9375 8.0625 9.9375 8.0625 9.972656 8.425781 C 9.960938 8.804688 9.949219 9.183594 9.9375 9.5625 C 10.125 9.5625 10.308594 9.5625 10.5 9.5625 C 10.4375 9.75 10.375 9.933594 10.3125 10.125 C 10.066406 10.0625 9.816406 10 9.5625 9.9375 C 9.546875 9.761719 9.546875 9.761719 9.535156 9.582031 C 9.519531 9.429688 9.507812 9.273438 9.492188 9.117188 C 9.472656 8.890625 9.472656 8.890625 9.453125 8.65625 C 9.40625 8.210938 9.40625 8.210938 9 7.875 C 8.691406 7.742188 8.378906 7.617188 8.0625 7.5 C 8.125 7.253906 8.1875 7.003906 8.25 6.75 Z M 8.25 6.75 "/>
<path style=" stroke:none;fill-rule:nonzero;fill:rgb(58.431375%,57.647061%,57.647061%);fill-opacity:1;" d="M 12 5.8125 C 12.0625 5.9375 12.125 6.058594 12.1875 6.1875 C 12.621094 6.320312 13.058594 6.445312 13.5 6.5625 C 13.796875 6.859375 13.753906 7.195312 13.792969 7.605469 C 13.808594 7.761719 13.824219 7.914062 13.839844 8.074219 C 13.851562 8.195312 13.863281 8.3125 13.875 8.4375 C 14 8.4375 14.121094 8.4375 14.25 8.4375 C 14.3125 8.25 14.375 8.066406 14.4375 7.875 C 14.625 7.9375 14.808594 8 15 8.0625 C 14.8125 8.125 14.628906 8.1875 14.4375 8.25 C 14.4375 8.375 14.4375 8.496094 14.4375 8.625 C 14.074219 8.730469 14.074219 8.730469 13.6875 8.8125 C 13.390625 8.515625 13.433594 8.179688 13.394531 7.769531 C 13.378906 7.613281 13.363281 7.460938 13.347656 7.300781 C 13.335938 7.179688 13.324219 7.0625 13.3125 6.9375 C 12.878906 6.8125 12.445312 6.691406 12 6.5625 C 12 6.316406 12 6.066406 12 5.8125 Z M 12 5.8125 "/>
<path style=" stroke:none;fill-rule:nonzero;fill:rgb(58.823532%,58.039218%,58.039218%);fill-opacity:1;" d="M 15.9375 21.75 C 16 21.75 16.0625 21.75 16.125 21.75 C 16.125 22.121094 16.125 22.492188 16.125 22.875 C 15.324219 23.332031 14.59375 23.394531 13.6875 23.25 C 13.207031 22.875 13.207031 22.875 12.9375 22.5 C 13 22.3125 13.0625 22.128906 13.125 21.9375 C 13.210938 22.027344 13.296875 22.117188 13.382812 22.207031 C 13.921875 22.722656 14.300781 22.707031 15.023438 22.699219 C 15.195312 22.699219 15.363281 22.695312 15.539062 22.695312 C 15.738281 22.691406 15.738281 22.691406 15.9375 22.6875 C 15.9375 22.378906 15.9375 22.070312 15.9375 21.75 Z M 15.9375 21.75 "/>
<path style=" stroke:none;fill-rule:nonzero;fill:rgb(80.000001%,79.607844%,79.607844%);fill-opacity:1;" d="M 19.6875 19.125 C 19.734375 19.746094 19.734375 19.746094 19.6875 20.4375 C 19.3125 20.800781 19.3125 20.800781 18.9375 21 C 18.5625 20.4375 18.5625 20.4375 18.597656 19.957031 C 18.792969 19.371094 19.050781 19.125 19.6875 19.125 Z M 19.6875 19.125 "/>
<path style=" stroke:none;fill-rule:nonzero;fill:rgb(60.000002%,59.215689%,59.215689%);fill-opacity:1;" d="M 11.4375 16.6875 C 11.8125 16.6875 11.8125 16.6875 12.269531 17.121094 C 12.527344 17.394531 12.789062 17.664062 13.042969 17.941406 C 13.355469 18.226562 13.675781 18.390625 14.0625 18.5625 C 14 18.6875 13.9375 18.808594 13.875 18.9375 C 13.457031 19 13.457031 19 12.9375 18.9375 C 12.519531 18.492188 12.519531 18.492188 12.128906 17.917969 C 12 17.730469 11.867188 17.539062 11.734375 17.34375 C 11.4375 16.875 11.4375 16.875 11.4375 16.6875 Z M 11.4375 16.6875 "/>
<path style=" stroke:none;fill-rule:nonzero;fill:rgb(57.647061%,57.254905%,57.254905%);fill-opacity:1;" d="M 1.875 13.5 C 2.507812 13.601562 2.828125 13.699219 3.375 14.0625 C 3.683594 14.132812 3.996094 14.199219 4.3125 14.25 C 4.25 14.496094 4.1875 14.746094 4.125 15 C 3.136719 14.941406 2.542969 14.363281 1.875 13.6875 C 1.875 13.625 1.875 13.5625 1.875 13.5 Z M 1.875 13.5 "/>
<path style=" stroke:none;fill-rule:nonzero;fill:rgb(59.215689%,58.431375%,58.431375%);fill-opacity:1;" d="M 6.5625 10.5 C 6.75 10.777344 6.75 10.777344 6.9375 11.0625 C 7.125 11 7.308594 10.9375 7.5 10.875 C 7.9375 10.867188 8.375 10.867188 8.8125 10.875 C 8.8125 10.9375 8.8125 11 8.8125 11.0625 C 8.550781 11.125 8.550781 11.125 8.285156 11.191406 C 7.59375 11.476562 7.4375 11.710938 7.125 12.375 C 6.9375 12.3125 6.753906 12.25 6.5625 12.1875 C 6.5625 11.628906 6.5625 11.074219 6.5625 10.5 Z M 6.5625 10.5 "/>
<path style=" stroke:none;fill-rule:nonzero;fill:rgb(60.784316%,60.000002%,60.000002%);fill-opacity:1;" d="M 3.75 6.75 C 4.746094 7.1875 5.722656 7.726562 6.1875 8.742188 C 6.375 9.375 6.375 9.375 6.1875 9.9375 C 6.121094 9.828125 6.050781 9.714844 5.980469 9.601562 C 5.527344 8.886719 5.113281 8.238281 4.441406 7.710938 C 3.9375 7.3125 3.9375 7.3125 3.75 6.75 Z M 3.75 6.75 "/>
<path style=" stroke:none;fill-rule:nonzero;fill:rgb(58.823532%,58.431375%,58.431375%);fill-opacity:1;" d="M 18.5625 14.0625 C 18.625 14.0625 18.6875 14.0625 18.75 14.0625 C 18.761719 14.21875 18.773438 14.375 18.785156 14.535156 C 18.800781 14.738281 18.816406 14.941406 18.832031 15.152344 C 18.855469 15.457031 18.855469 15.457031 18.878906 15.765625 C 18.917969 16.324219 18.917969 16.324219 19.125 16.875 C 18.816406 16.8125 18.507812 16.75 18.1875 16.6875 C 18.214844 16.355469 18.242188 16.023438 18.269531 15.691406 C 18.285156 15.507812 18.300781 15.320312 18.316406 15.132812 C 18.375 14.625 18.375 14.625 18.5625 14.0625 Z M 18.5625 14.0625 "/>
<path style=" stroke:none;fill-rule:nonzero;fill:rgb(56.078434%,55.686277%,55.686277%);fill-opacity:1;" d="M 13.3125 19.875 C 13.417969 20.007812 13.417969 20.007812 13.523438 20.144531 C 13.992188 20.535156 14.402344 20.558594 15 20.625 C 14.9375 20.8125 14.875 20.996094 14.8125 21.1875 C 14.273438 21.222656 14.273438 21.222656 13.6875 21.1875 C 13.3125 20.625 13.3125 20.625 13.3125 19.875 Z M 13.3125 19.875 "/>
<path style=" stroke:none;fill-rule:nonzero;fill:rgb(60.000002%,59.215689%,59.215689%);fill-opacity:1;" d="M 12.75 13.5 C 13.65625 14.257812 13.945312 14.992188 14.25 16.125 C 13.6875 15.9375 13.6875 15.9375 13.476562 15.527344 C 13.414062 15.363281 13.351562 15.195312 13.289062 15.023438 C 13.226562 14.859375 13.164062 14.691406 13.101562 14.519531 C 12.980469 14.183594 12.863281 13.839844 12.75 13.5 Z M 12.75 13.5 "/>
<path style=" stroke:none;fill-rule:nonzero;fill:rgb(55.29412%,54.509807%,54.509807%);fill-opacity:1;" d="M 15.375 19.3125 C 16.023438 19.589844 16.023438 19.589844 16.6875 19.875 C 16.75 19.75 16.8125 19.628906 16.875 19.5 C 16.8125 19.746094 16.75 19.996094 16.6875 20.25 C 16.378906 20.3125 16.070312 20.375 15.75 20.4375 C 15.625 20.066406 15.503906 19.695312 15.375 19.3125 Z M 15.375 19.3125 "/>
<path style=" stroke:none;fill-rule:nonzero;fill:rgb(57.254905%,56.470591%,56.470591%);fill-opacity:1;" d="M 18.1875 21.375 C 18.1875 21.5 18.1875 21.621094 18.1875 21.75 C 17.644531 22.132812 17.363281 22.3125 16.6875 22.3125 C 16.6875 22.125 16.6875 21.941406 16.6875 21.75 C 17.230469 21.515625 17.585938 21.375 18.1875 21.375 Z M 18.1875 21.375 "/>
<path style=" stroke:none;fill-rule:nonzero;fill:rgb(62.352943%,61.56863%,61.56863%);fill-opacity:1;" d="M 16.6875 15.5625 C 16.734375 15.679688 16.78125 15.792969 16.828125 15.914062 C 17.101562 16.378906 17.320312 16.492188 17.8125 16.6875 C 17.8125 16.8125 17.8125 16.933594 17.8125 17.0625 C 17.441406 17.0625 17.070312 17.0625 16.6875 17.0625 C 16.6875 16.566406 16.6875 16.074219 16.6875 15.5625 Z M 16.6875 15.5625 "/>
<path style=" stroke:none;fill-rule:nonzero;fill:rgb(85.09804%,84.705883%,84.705883%);fill-opacity:1;" d="M 18.75 17.4375 C 18.9375 17.4375 19.121094 17.4375 19.3125 17.4375 C 19.3125 17.808594 19.3125 18.179688 19.3125 18.5625 C 19.125 18.625 18.941406 18.6875 18.75 18.75 C 18.75 18.316406 18.75 17.882812 18.75 17.4375 Z M 18.75 17.4375 "/>
<path style=" stroke:none;fill-rule:nonzero;fill:rgb(60.784316%,60.000002%,60.000002%);fill-opacity:1;" d="M 12 5.8125 C 12.0625 5.9375 12.125 6.058594 12.1875 6.1875 C 12.621094 6.324219 13.058594 6.449219 13.5 6.5625 C 13.5 6.625 13.5 6.6875 13.5 6.75 C 13.003906 6.6875 12.511719 6.625 12 6.5625 C 12 6.316406 12 6.066406 12 5.8125 Z M 12 5.8125 "/>
<path style=" stroke:none;fill-rule:nonzero;fill:rgb(66.274512%,65.490198%,65.490198%);fill-opacity:1;" d="M 15.75 12 C 16.03125 12.199219 16.03125 12.199219 16.3125 12.5625 C 16.347656 13.253906 16.347656 13.253906 16.3125 13.875 C 16.027344 13.324219 15.789062 12.765625 15.5625 12.1875 C 15.625 12.125 15.6875 12.0625 15.75 12 Z M 15.75 12 "/>
<path style=" stroke:none;fill-rule:nonzero;fill:rgb(60.392159%,59.607846%,59.607846%);fill-opacity:1;" d="M 0.5625 1.6875 C 0.6875 1.6875 0.808594 1.6875 0.9375 1.6875 C 1 1.8125 1.0625 1.933594 1.125 2.0625 C 1.597656 2.183594 1.597656 2.183594 2.0625 2.25 C 2 2.375 1.9375 2.496094 1.875 2.625 C 1.566406 2.625 1.257812 2.625 0.9375 2.625 C 0.8125 2.316406 0.691406 2.007812 0.5625 1.6875 Z M 0.5625 1.6875 "/>
</g>
</svg>
